<?xml version="1.0" encoding="UTF-8"?>
<svg width="512px" height="512px" viewBox="0 0 512 512" version="1.1" xmlns="http://www.w3.org/2000/svg" xmlns:xlink="http://www.w3.org/1999/xlink">
    <!-- Generator: Sketch 43.2 (39069) - http://www.bohemiancoding.com/sketch -->
    <title>blind_down</title>
    <desc>Created with Sketch.</desc>
    <defs></defs>
    <g id="Page-1" stroke="none" stroke-width="1" fill="none" fill-rule="evenodd">
        <g id="blind_down" fill="#000000">
            <path d="M0,47.9950893 C0,21.4881334 21.4899905,0 47.9950893,0 L464.004911,0 C490.511867,0 512,21.4899905 512,47.9950893 L512,464.004911 C512,490.511867 490.510009,512 464.004911,512 L47.9950893,512 C21.4881334,512 0,490.510009 0,464.004911 L0,47.9950893 Z M32,63.9943866 L32,448.005613 C32,465.6645 46.3243748,480 63.9943866,480 L448.005613,480 C465.6645,480 480,465.675625 480,448.005613 L480,63.9943866 C480,46.3355003 465.675625,32 448.005613,32 L63.9943866,32 C46.3355003,32 32,46.3243748 32,63.9943866 Z" id="Combined-Shape"></path>
            <path d="M48,64 C48,55.163444 55.1547681,48 64.0052029,48 L447.994797,48 C456.834227,48 464,55.1615011 464,64 L464,80 L48,80 L48,64 Z" id="Rectangle-3"></path>
            <rect id="Rectangle-3" x="48" y="96" width="416" height="64"></rect>
            <path d="M48,176 L464,176 L464,255.999308 C464,264.836246 456.845232,272 447.994797,272 L64.0052029,272 C55.1657734,272 48,264.843254 48,255.999308 L48,176 Z" id="Rectangle-3"></path>
            <path d="M280,378.349852 L280,304.007072 C280,295.162378 272.836564,288 264.000017,288 L247.999983,288 C239.160152,288 232,295.16661 232,304.007072 L232,378.349852 L210.004458,378.349852 C201.15738,378.349852 197.936582,384.335876 202.792601,391.72001 L247.207399,459.257801 C252.062789,466.640979 259.936582,466.641935 264.792601,459.257801 L309.207399,391.72001 C314.062789,384.336832 310.83456,378.349852 301.995542,378.349852 L280,378.349852 Z" id="Combined-Shape"></path>
        </g>
    </g>
</svg>